{
  "source": "C:\\Users\\Peter\\Desktop\\stuff\\MIUN\\quantitative_research\\video_compression\\videos\\UVG\\HoneyBee_1920x1080_120fps_420_8bit_YUV.y4m",
  "output": "C:\\Users\\Peter\\Desktop\\stuff\\MIUN\\quantitative_research\\video_compression\\compressed_videos\\UVG\\av1\\1.5\\HoneyBee_1920x1080_120fps_420_8bit_YUV_av1.mkv",
  "codec": "av1",
  "ok": "[yuv4mpegpipe @ 0000016476715380] Stream #0: not enough frames to estimate rate; consider increasing probesize\nInput #0, yuv4mpegpipe, from 'C:\\Users\\Peter\\Desktop\\stuff\\MIUN\\quantitative_research\\video_compression\\videos\\UVG\\HoneyBee_1920x1080_120fps_420_8bit_YUV.y4m':\n  Duration: 00:00:05.00, start: 0.000000, bitrate: 2985989 kb/s\n  Stream #0:0: Video: rawvideo (I420 / 0x30323449), yuv420p(progressive), 1920x1080, 120 fps, 120 tbr, 120 tbn\n[out#0/matroska @ 00000164767190c0] Codec AVOption b:a (set bitrate (in bits/s)) has not been used for any stream. The most likely reason is either wrong type (e.g. a video option with no video streams) or that it is a private option of some decoder which was not actually used for any stream.\nStream mapping:\n  Stream #0:0 -> #0:0 (rawvideo (native) -> av1 (libsvtav1))\nPress [q] to stop, [?] for help\nSvt[info]: -------------------------------------------\nSvt[info]: SVT [version]:\tSVT-AV1 Encoder Lib v3.1.0-19-g6ecfe8ec\nSvt[info]: SVT [build]  :\tGCC 15.2.0\t 64 bit\nSvt[info]: LIB Build date: Aug 17 2025 11:37:13\nSvt[info]: -------------------------------------------\n[libsvtav1 @ 000001647671c1c0] Specified chroma sample location center is unsupported on the AV1 bit stream level. Usage of a container that allows passing this information - such as Matroska - is recommended.\nSvt[info]: Level of Parallelism: 5\nSvt[info]: Number of PPCS 93\nSvt[info]: [asm level on system : up to avx2]\nSvt[info]: [asm level selected : up to avx2]\nSvt[info]: -------------------------------------------\nSvt[info]: SVT [config]: main profile\ttier (auto)\tlevel (auto)\nSvt[info]: SVT [config]: width / height / fps numerator / fps denominator \t\t: 1920 / 1080 / 120 / 1\nSvt[info]: SVT [config]: bit-depth / color format \t\t\t\t\t: 8 / YUV420\nSvt[info]: SVT [config]: preset / tune / pred struct \t\t\t\t\t: 4 / PSNR / random access\nSvt[info]: SVT [config]: gop size / mini-gop size / key-frame type \t\t\t: 641 / 16 / key frame\nSvt[info]: SVT [config]: BRC mode / target bitrate (kbps)\t\t\t\t: VBR / 1500 \nSvt[info]: SVT [config]: AQ mode / Variance Boost \t\t\t\t\t: 2 / 0\nSvt[info]: SVT [config]: sharpness / luminance-based QP bias \t\t\t\t: 0 / 0\nSvt[info]: SVT [config]: QP scale compress strength \t\t\t\t\t: 0\nSvt[info]: -------------------------------------------\nOutput #0, matroska, to 'C:\\Users\\Peter\\Desktop\\stuff\\MIUN\\quantitative_research\\video_compression\\compressed_videos\\UVG\\av1\\1.5\\HoneyBee_1920x1080_120fps_420_8bit_YUV_av1.mkv':\n  Metadata:\n    encoder         : Lavf62.3.100\n  Stream #0:0: Video: av1 (AV01 / 0x31305641), yuv420p(tv, progressive), 1920x1080, q=2-31, 1500 kb/s, 120 fps, 1k tbn\n    Metadata:\n      encoder         : Lavc62.11.100 libsvtav1\n    Side data:\n      cpb: bitrate max/min/avg: 0/0/1500000 buffer size: 1500000 vbv_delay: N/A\nframe=    0 fps=0.0 q=0.0 size=       0KiB time=N/A bitrate=N/A speed=N/A elapsed=0:00:02.83    \nframe=    0 fps=0.0 q=0.0 size=       0KiB time=N/A bitrate=N/A speed=N/A elapsed=0:00:03.50    \nframe=    0 fps=0.0 q=0.0 size=       0KiB time=N/A bitrate=N/A speed=N/A elapsed=0:00:04.05    \nframe=    0 fps=0.0 q=0.0 size=       0KiB time=N/A bitrate=N/A speed=N/A elapsed=0:00:04.61    \nframe=    0 fps=0.0 q=0.0 size=       0KiB time=N/A bitrate=N/A speed=N/A elapsed=0:00:05.17    \nframe=    0 fps=0.0 q=0.0 size=       0KiB time=N/A bitrate=N/A speed=N/A elapsed=0:00:05.74    \nframe=    0 fps=0.0 q=0.0 size=       0KiB time=N/A bitrate=N/A speed=N/A elapsed=0:00:06.31    \nframe=    0 fps=0.0 q=0.0 size=       0KiB time=N/A bitrate=N/A speed=N/A elapsed=0:00:06.86    \nframe=    0 fps=0.0 q=0.0 size=       0KiB time=N/A bitrate=N/A speed=N/A elapsed=0:00:07.42    \nframe=    0 fps=0.0 q=0.0 size=       0KiB time=N/A bitrate=N/A speed=N/A elapsed=0:00:07.98    \nframe=    0 fps=0.0 q=0.0 size=       0KiB time=N/A bitrate=N/A speed=N/A elapsed=0:00:08.56    \nframe=    0 fps=0.0 q=0.0 size=       0KiB time=N/A bitrate=N/A speed=N/A elapsed=0:00:09.12    \nframe=    0 fps=0.0 q=0.0 size=       0KiB time=N/A bitrate=N/A speed=N/A elapsed=0:00:09.69    \nframe=    0 fps=0.0 q=0.0 size=       0KiB time=N/A bitrate=N/A speed=N/A elapsed=0:00:10.26    \nframe=    0 fps=0.0 q=0.0 size=       0KiB time=N/A bitrate=N/A speed=N/A elapsed=0:00:10.86    \nframe=    0 fps=0.0 q=0.0 size=       0KiB time=N/A bitrate=N/A speed=N/A elapsed=0:00:11.44    \nframe=    0 fps=0.0 q=0.0 size=       0KiB time=N/A bitrate=N/A speed=N/A elapsed=0:00:12.04    \nframe=    0 fps=0.0 q=0.0 size=       0KiB time=N/A bitrate=N/A speed=N/A elapsed=0:00:12.61    \nframe=    0 fps=0.0 q=0.0 size=       0KiB time=N/A bitrate=N/A speed=N/A elapsed=0:00:13.20    \nframe=    0 fps=0.0 q=0.0 size=       0KiB time=N/A bitrate=N/A speed=N/A elapsed=0:00:13.79    \nframe=    0 fps=0.0 q=0.0 size=       0KiB time=N/A bitrate=N/A speed=N/A elapsed=0:00:14.36    \nframe=    0 fps=0.0 q=0.0 size=       0KiB time=N/A bitrate=N/A speed=N/A elapsed=0:00:14.93    \nframe=    0 fps=0.0 q=0.0 size=       0KiB time=N/A bitrate=N/A speed=N/A elapsed=0:00:15.49    \nframe=    0 fps=0.0 q=0.0 size=       0KiB time=N/A bitrate=N/A speed=N/A elapsed=0:00:16.05    \nframe=    0 fps=0.0 q=0.0 size=       0KiB time=N/A bitrate=N/A speed=N/A elapsed=0:00:16.61    \nframe=    0 fps=0.0 q=0.0 size=       0KiB time=N/A bitrate=N/A speed=N/A elapsed=0:00:17.17    \nframe=    0 fps=0.0 q=0.0 size=       0KiB time=N/A bitrate=N/A speed=N/A elapsed=0:00:17.74    \nframe=    0 fps=0.0 q=0.0 size=       0KiB time=N/A bitrate=N/A speed=N/A elapsed=0:00:18.28    \nframe=    0 fps=0.0 q=0.0 size=       0KiB time=N/A bitrate=N/A speed=N/A elapsed=0:00:18.82    \nframe=    1 fps=0.1 q=21.0 size=       1KiB time=00:00:00.00 bitrate=N/A speed=   0x elapsed=0:00:19.36    \nframe=    1 fps=0.1 q=21.0 size=       1KiB time=00:00:00.00 bitrate=N/A speed=   0x elapsed=0:00:19.92    \nframe=    1 fps=0.0 q=21.0 size=       1KiB time=00:00:00.00 bitrate=N/A speed=   0x elapsed=0:00:20.48    \nframe=    2 fps=0.1 q=56.0 size=       1KiB time=00:00:00.00 bitrate= 537.6kbits/s speed=0.000396x elapsed=0:00:21.04    \nframe=    6 fps=0.3 q=54.0 size=       1KiB time=00:00:00.04 bitrate= 107.5kbits/s speed=0.00193x elapsed=0:00:21.59    \nframe=    9 fps=0.4 q=49.0 size=       1KiB time=00:00:00.05 bitrate=  76.8kbits/s speed=0.00263x elapsed=0:00:22.16    \nframe=   12 fps=0.5 q=49.0 size=       1KiB time=00:00:00.09 bitrate=  48.9kbits/s speed=0.00403x elapsed=0:00:22.74    \nframe=   16 fps=0.7 q=49.0 size=       1KiB time=00:00:00.12 bitrate=  35.8kbits/s speed=0.00536x elapsed=0:00:23.30    \nframe=   19 fps=0.8 q=44.0 size=       1KiB time=00:00:00.14 bitrate=  31.6kbits/s speed=0.00593x elapsed=0:00:23.87    \nframe=   21 fps=0.9 q=44.0 size=       1KiB time=00:00:00.16 bitrate=  26.9kbits/s speed=0.00682x elapsed=0:00:24.45    \nframe=   22 fps=0.9 q=44.0 size=       1KiB time=00:00:00.17 bitrate=  25.6kbits/s speed=0.00699x elapsed=0:00:25.03    \nframe=   25 fps=1.0 q=42.0 size=       1KiB time=00:00:00.20 bitrate=  22.4kbits/s speed=0.0078x elapsed=0:00:25.63    \nframe=   26 fps=1.0 q=43.0 size=       1KiB time=00:00:00.20 bitrate=  21.5kbits/s speed=0.00794x elapsed=0:00:26.24    \nframe=   29 fps=1.1 q=43.0 size=       1KiB time=00:00:00.23 bitrate=  19.2kbits/s speed=0.0087x elapsed=0:00:26.81    \nframe=   29 fps=1.1 q=43.0 size=       1KiB time=00:00:00.23 bitrate=  19.2kbits/s speed=0.00852x elapsed=0:00:27.40    \nframe=   30 fps=1.1 q=41.0 size=       1KiB time=00:00:00.24 bitrate=  18.5kbits/s speed=0.00864x elapsed=0:00:27.97    \nframe=   31 fps=1.1 q=42.0 size=       1KiB time=00:00:00.25 bitrate=  17.9kbits/s speed=0.00876x elapsed=0:00:28.55    \nframe=   33 fps=1.1 q=34.0 size=       1KiB time=00:00:00.26 bitrate=  16.8kbits/s speed=0.00916x elapsed=0:00:29.12    \nframe=   34 fps=1.1 q=36.0 size=       1KiB time=00:00:00.27 bitrate=  16.3kbits/s speed=0.00926x elapsed=0:00:29.70    \nframe=   35 fps=1.2 q=36.0 size=       1KiB time=00:00:00.28 bitrate=  15.8kbits/s speed=0.00936x elapsed=0:00:30.28    \nframe=   36 fps=1.2 q=36.0 size=       1KiB time=00:00:00.29 bitrate=  15.4kbits/s speed=0.00945x elapsed=0:00:30.84    \nframe=   38 fps=1.2 q=36.0 size=       1KiB time=00:00:00.30 bitrate=  14.5kbits/s speed=0.00982x elapsed=0:00:31.41    \nframe=   40 fps=1.3 q=36.0 size=       1KiB time=00:00:00.32 bitrate=  13.8kbits/s speed=0.0102x elapsed=0:00:31.97    \nframe=   43 fps=1.3 q=35.0 size=       1KiB time=00:00:00.35 bitrate=  12.8kbits/s speed=0.0107x elapsed=0:00:32.55    \nframe=   44 fps=1.3 q=34.0 size=       1KiB time=00:00:00.35 bitrate=  12.5kbits/s speed=0.0108x elapsed=0:00:33.12    \nframe=   46 fps=1.4 q=34.0 size=       1KiB time=00:00:00.37 bitrate=  11.9kbits/s speed=0.0111x elapsed=0:00:33.70    \nframe=   48 fps=1.4 q=34.0 size=       1KiB time=00:00:00.39 bitrate=  11.4kbits/s speed=0.0114x elapsed=0:00:34.29    \nframe=   48 fps=1.4 q=34.0 size=       1KiB time=00:00:00.39 bitrate=  11.4kbits/s speed=0.0112x elapsed=0:00:34.89    \nframe=   50 fps=1.4 q=32.0 size=       1KiB time=00:00:00.40 bitrate=  11.0kbits/s speed=0.0115x elapsed=0:00:35.48    \nframe=   51 fps=1.4 q=31.0 size=       1KiB time=00:00:00.41 bitrate=  10.8kbits/s speed=0.0115x elapsed=0:00:36.10    \nframe=   51 fps=1.4 q=31.0 size=       1KiB time=00:00:00.41 bitrate=  10.8kbits/s speed=0.0113x elapsed=0:00:36.73    \nframe=   53 fps=1.4 q=30.0 size=       1KiB time=00:00:00.42 bitrate=  10.5kbits/s speed=0.0114x elapsed=0:00:37.33    \nframe=   54 fps=1.4 q=32.0 size=       1KiB time=00:00:00.44 bitrate=  10.1kbits/s speed=0.0116x elapsed=0:00:37.91    \nframe=   54 fps=1.4 q=32.0 size=       1KiB time=00:00:00.44 bitrate=  10.1kbits/s speed=0.0115x elapsed=0:00:38.49    \nframe=   56 fps=1.4 q=32.0 size=       1KiB time=00:00:00.45 bitrate=   9.8kbits/s speed=0.0117x elapsed=0:00:39.08    \nframe=   56 fps=1.4 q=32.0 size=       1KiB time=00:00:00.45 bitrate=   9.8kbits/s speed=0.0115x elapsed=0:00:39.68    \nframe=   58 fps=1.4 q=32.0 size=       1KiB time=00:00:00.46 bitrate=   9.6kbits/s speed=0.0116x elapsed=0:00:40.26    \nframe=   60 fps=1.5 q=32.0 size=       1KiB time=00:00:00.49 bitrate=   9.1kbits/s speed=0.012x elapsed=0:00:40.85    \nframe=   61 fps=1.5 q=30.0 size=       1KiB time=00:00:00.50 bitrate=   9.0kbits/s speed=0.0121x elapsed=0:00:41.45    \nframe=   62 fps=1.5 q=31.0 size=       1KiB time=00:00:00.50 bitrate=   8.8kbits/s speed=0.0121x elapsed=0:00:42.06    \nframe=   64 fps=1.5 q=31.0 size=       1KiB time=00:00:00.52 bitrate=   8.5kbits/s speed=0.0123x elapsed=0:00:42.64    \nframe=   65 fps=1.5 q=22.0 size=       1KiB time=00:00:00.53 bitrate=   8.4kbits/s speed=0.0123x elapsed=0:00:43.21    \nframe=   66 fps=1.5 q=32.0 size=       1KiB time=00:00:00.54 bitrate=   8.3kbits/s speed=0.0124x elapsed=0:00:43.77    \nframe=   67 fps=1.5 q=31.0 size=       1KiB time=00:00:00.55 bitrate=   8.1kbits/s speed=0.0124x elapsed=0:00:44.32    \nframe=   69 fps=1.5 q=30.0 size=       1KiB time=00:00:00.56 bitrate=   7.9kbits/s speed=0.0126x elapsed=0:00:44.87    \nframe=   71 fps=1.6 q=31.0 size=       1KiB time=00:00:00.58 bitrate=   7.7kbits/s speed=0.0128x elapsed=0:00:45.40    \nframe=   72 fps=1.6 q=32.0 size=       1KiB time=00:00:00.59 bitrate=   7.6kbits/s speed=0.0129x elapsed=0:00:45.94    \nframe=   73 fps=1.6 q=27.0 size=       1KiB time=00:00:00.60 bitrate=   7.5kbits/s speed=0.0129x elapsed=0:00:46.48    \nframe=   76 fps=1.6 q=32.0 size=       1KiB time=00:00:00.62 bitrate=   7.2kbits/s speed=0.0133x elapsed=0:00:47.04    \nframe=   76 fps=1.6 q=32.0 size=       1KiB time=00:00:00.62 bitrate=   7.2kbits/s speed=0.0131x elapsed=0:00:47.59    \nframe=   78 fps=1.6 q=31.0 size=       1KiB time=00:00:00.64 bitrate=   7.0kbits/s speed=0.0133x elapsed=0:00:48.17    \nframe=   79 fps=1.6 q=29.0 size=       1KiB time=00:00:00.65 bitrate=   6.9kbits/s speed=0.0133x elapsed=0:00:48.76    \nframe=   80 fps=1.6 q=31.0 size=       1KiB time=00:00:00.65 bitrate=   6.9kbits/s speed=0.0132x elapsed=0:00:49.32    \nframe=   80 fps=1.6 q=31.0 size=       1KiB time=00:00:00.65 bitrate=   6.8kbits/s speed=0.0132x elapsed=0:00:49.87    \nframe=   81 fps=1.6 q=21.0 size=       1KiB time=00:00:00.66 bitrate=   6.7kbits/s speed=0.0132x elapsed=0:00:50.44    \nframe=   82 fps=1.6 q=32.0 size=       1KiB time=00:00:00.67 bitrate=   6.6kbits/s speed=0.0132x elapsed=0:00:51.01    \nframe=   83 fps=1.6 q=31.0 size=       1KiB time=00:00:00.68 bitrate=   6.6kbits/s speed=0.0132x elapsed=0:00:51.58    \nframe=   85 fps=1.6 q=29.0 size=       1KiB time=00:00:00.70 bitrate=   6.4kbits/s speed=0.0134x elapsed=0:00:52.15    \nframe=   87 fps=1.7 q=31.0 size=       1KiB time=00:00:00.71 bitrate=   6.3kbits/s speed=0.0136x elapsed=0:00:52.72    \nframe=   87 fps=1.6 q=31.0 size=       1KiB time=00:00:00.71 bitrate=   6.3kbits/s speed=0.0134x elapsed=0:00:53.30    \nframe=   87 fps=1.6 q=31.0 size=       1KiB time=00:00:00.71 bitrate=   6.3kbits/s speed=0.0133x elapsed=0:00:53.88    \nframe=   88 fps=1.6 q=32.0 size=       1KiB time=00:00:00.72 bitrate=   6.2kbits/s speed=0.0133x elapsed=0:00:54.44    \nframe=   88 fps=1.6 q=32.0 size=       1KiB time=00:00:00.72 bitrate=   6.2kbits/s speed=0.0132x elapsed=0:00:55.03    \nframe=   89 fps=1.6 q=26.0 size=       1KiB time=00:00:00.73 bitrate=   6.1kbits/s speed=0.0132x elapsed=0:00:55.59    \nframe=   90 fps=1.6 q=31.0 size=       1KiB time=00:00:00.74 bitrate=   6.0kbits/s speed=0.0132x elapsed=0:00:56.16    \nframe=   91 fps=1.6 q=29.0 size=       1KiB time=00:00:00.75 bitrate=   6.0kbits/s speed=0.0132x elapsed=0:00:56.73    \nframe=   93 fps=1.6 q=26.0 size=       1KiB time=00:00:00.76 bitrate=   5.8kbits/s speed=0.0134x elapsed=0:00:57.30    \nframe=   95 fps=1.6 q=29.0 size=       1KiB time=00:00:00.78 bitrate=   5.7kbits/s speed=0.0135x elapsed=0:00:57.88    \nframe=   97 fps=1.7 q=19.0 size=       1KiB time=00:00:00.80 bitrate=   5.6kbits/s speed=0.0137x elapsed=0:00:58.45    \nframe=   99 fps=1.7 q=31.0 size=       1KiB time=00:00:00.81 bitrate=   5.5kbits/s speed=0.0138x elapsed=0:00:58.99    \nframe=  101 fps=1.7 q=29.0 size=       1KiB time=00:00:00.83 bitrate=   5.4kbits/s speed=0.014x elapsed=0:00:59.55    \nframe=  101 fps=1.7 q=29.0 size=       1KiB time=00:00:00.83 bitrate=   5.4kbits/s speed=0.0139x elapsed=0:01:00.12    \nframe=  102 fps=1.7 q=32.0 size=       1KiB time=00:00:00.84 bitrate=   5.3kbits/s speed=0.0139x elapsed=0:01:00.69    \nframe=  103 fps=1.7 q=31.0 size=       1KiB time=00:00:00.84 bitrate=   5.3kbits/s speed=0.0137x elapsed=0:01:01.27    \nframe=  104 fps=1.7 q=32.0 size=       1KiB time=00:00:00.85 bitrate=   5.3kbits/s speed=0.0137x elapsed=0:01:01.84    \nframe=  106 fps=1.7 q=32.0 size=       1KiB time=00:00:00.87 bitrate=   5.1kbits/s speed=0.014x elapsed=0:01:02.40    \nframe=  106 fps=1.7 q=32.0 size=       1KiB time=00:00:00.87 bitrate=   5.1kbits/s speed=0.0139x elapsed=0:01:02.99    \nframe=  107 fps=1.7 q=31.0 size=       1KiB time=00:00:00.88 bitrate=   5.1kbits/s speed=0.0139x elapsed=0:01:03.57    \nframe=  109 fps=1.7 q=29.0 size=       1KiB time=00:00:00.89 bitrate=   5.0kbits/s speed=0.0139x elapsed=0:01:04.14    \nframe=  109 fps=1.7 q=29.0 size=       1KiB time=00:00:00.90 bitrate=   5.0kbits/s speed=0.0139x elapsed=0:01:04.73    \nframe=  111 fps=1.7 q=25.0 size=       1KiB time=00:00:00.91 bitrate=   4.9kbits/s speed=0.014x elapsed=0:01:05.32    \nframe=  112 fps=1.7 q=29.0 size=       1KiB time=00:00:00.92 bitrate=   4.8kbits/s speed=0.014x elapsed=0:01:05.90    \nframe=  114 fps=1.7 q=32.0 size=       1KiB time=00:00:00.94 bitrate=   4.8kbits/s speed=0.0142x elapsed=0:01:06.47    \nframe=  114 fps=1.7 q=32.0 size=       1KiB time=00:00:00.94 bitrate=   4.8kbits/s speed=0.014x elapsed=0:01:07.03    \nframe=  116 fps=1.7 q=32.0 size=       1KiB time=00:00:00.95 bitrate=   4.7kbits/s speed=0.0142x elapsed=0:01:07.60    \nframe=  117 fps=1.7 q=29.0 size=       1KiB time=00:00:00.96 bitrate=   4.6kbits/s speed=0.0142x elapsed=0:01:08.17    \nframe=  117 fps=1.7 q=29.0 size=       1KiB time=00:00:00.96 bitrate=   4.6kbits/s speed=0.0141x elapsed=0:01:08.74    \nframe=  118 fps=1.7 q=32.0 size=       1KiB time=00:00:00.97 bitrate=   4.6kbits/s speed=0.0141x elapsed=0:01:09.31    \nframe=  120 fps=1.7 q=32.0 size=       1KiB time=00:00:00.98 bitrate=   4.6kbits/s speed=0.0141x elapsed=0:01:09.86    \nframe=  121 fps=1.7 q=25.0 size=       1KiB time=00:00:01.00 bitrate=   4.5kbits/s speed=0.0142x elapsed=0:01:10.42    \nframe=  123 fps=1.7 q=31.0 size=       1KiB time=00:00:01.01 bitrate=   4.4kbits/s speed=0.0143x elapsed=0:01:10.95    \nframe=  125 fps=1.7 q=29.0 size=       1KiB time=00:00:01.03 bitrate=   4.3kbits/s speed=0.0145x elapsed=0:01:11.50    \nframe=  127 fps=1.8 q=24.0 size=       1KiB time=00:00:01.04 bitrate=   4.3kbits/s speed=0.0145x elapsed=0:01:12.05    \nframe=  128 fps=1.8 q=28.0 size=       1KiB time=00:00:01.05 bitrate=   4.2kbits/s speed=0.0146x elapsed=0:01:12.61    \nframe=  129 fps=1.8 q=17.0 size=       1KiB time=00:00:01.06 bitrate=   4.2kbits/s speed=0.0146x elapsed=0:01:13.18    \nframe=  131 fps=1.8 q=30.0 size=       1KiB time=00:00:01.08 bitrate=   4.1kbits/s speed=0.0147x elapsed=0:01:13.73    \nframe=  134 fps=1.8 q=31.0 size=       1KiB time=00:00:01.10 bitrate=   4.0kbits/s speed=0.0149x elapsed=0:01:14.30    \nframe=  134 fps=1.8 q=31.0 size=       1KiB time=00:00:01.10 bitrate=   4.0kbits/s speed=0.0148x elapsed=0:01:14.86    \nframe=  135 fps=1.8 q=30.0 size=       1KiB time=00:00:01.10 bitrate=   4.0kbits/s speed=0.0147x elapsed=0:01:15.42    \nframe=  136 fps=1.8 q=27.0 size=       1KiB time=00:00:01.11 bitrate=   4.0kbits/s speed=0.0147x elapsed=0:01:15.99    \nframe=  138 fps=1.8 q=31.0 size=       1KiB time=00:00:01.14 bitrate=   3.9kbits/s speed=0.0149x elapsed=0:01:16.56    \nframe=  140 fps=1.8 q=31.0 size=       1KiB time=00:00:01.15 bitrate=   3.9kbits/s speed=0.015x elapsed=0:01:17.14    \nframe=  143 fps=1.8 q=30.0 size=       1KiB time=00:00:01.17 bitrate=   3.8kbits/s speed=0.0151x elapsed=0:01:17.72    \nframe=  145 fps=1.9 q=16.0 size=       1KiB time=00:00:01.20 bitrate=   3.7kbits/s speed=0.0153x elapsed=0:01:18.27    \nframe=  147 fps=1.9 q=31.0 size=       1KiB time=00:00:01.21 bitrate=   3.7kbits/s speed=0.0154x elapsed=0:01:18.84    \nframe=  149 fps=1.9 q=30.0 size=       1KiB time=00:00:01.23 bitrate=   3.6kbits/s speed=0.0155x elapsed=0:01:19.40    \nframe=  150 fps=1.9 q=32.0 size=       1KiB time=00:00:01.24 bitrate=   3.6kbits/s speed=0.0155x elapsed=0:01:19.97    \nframe=  153 fps=1.9 q=27.0 size=       1KiB time=00:00:01.25 bitrate=   3.6kbits/s speed=0.0156x elapsed=0:01:20.54    \nframe=  154 fps=1.9 q=32.0 size=       1KiB time=00:00:01.27 bitrate=   3.5kbits/s speed=0.0157x elapsed=0:01:21.11    \nframe=  156 fps=1.9 q=25.0 size=       1KiB time=00:00:01.29 bitrate=   3.5kbits/s speed=0.0158x elapsed=0:01:21.68    \nframe=  158 fps=1.9 q=29.0 size=       1KiB time=00:00:01.30 bitrate=   3.4kbits/s speed=0.0159x elapsed=0:01:22.27    \nframe=  159 fps=1.9 q=25.0 size=       1KiB time=00:00:01.31 bitrate=   3.4kbits/s speed=0.0159x elapsed=0:01:22.83    \nframe=  160 fps=1.9 q=29.0 size=       1KiB time=00:00:01.32 bitrate=   3.4kbits/s speed=0.0159x elapsed=0:01:23.38    \nframe=  162 fps=1.9 q=32.0 size=       1KiB time=00:00:01.34 bitrate=   3.3kbits/s speed=0.016x elapsed=0:01:23.95    \nframe=  164 fps=1.9 q=29.0 size=       1KiB time=00:00:01.35 bitrate=   3.3kbits/s speed=0.0161x elapsed=0:01:24.50    \nframe=  165 fps=1.9 q=29.0 size=       1KiB time=00:00:01.36 bitrate=   3.3kbits/s speed=0.0161x elapsed=0:01:25.05    \nframe=  166 fps=1.9 q=32.0 size=       1KiB time=00:00:01.37 bitrate=   3.3kbits/s speed=0.0161x elapsed=0:01:25.60    \nframe=  169 fps=2.0 q=25.0 size=       1KiB time=00:00:01.40 bitrate=   3.2kbits/s speed=0.0162x elapsed=0:01:26.17    \nframe=  170 fps=2.0 q=32.0 size=       1KiB time=00:00:01.40 bitrate=   3.2kbits/s speed=0.0162x elapsed=0:01:26.76    \nframe=  172 fps=2.0 q=32.0 size=       1KiB time=00:00:01.42 bitrate=   3.1kbits/s speed=0.0163x elapsed=0:01:27.32    \nframe=  174 fps=2.0 q=29.0 size=       1KiB time=00:00:01.44 bitrate=   3.1kbits/s speed=0.0164x elapsed=0:01:27.89    \nframe=  175 fps=2.0 q=26.0 size=       1KiB time=00:00:01.45 bitrate=   3.1kbits/s speed=0.0164x elapsed=0:01:28.47    \nframe=  177 fps=2.0 q=17.0 size=       1KiB time=00:00:01.45 bitrate=   3.1kbits/s speed=0.0164x elapsed=0:01:29.04    \nframe=  178 fps=2.0 q=32.0 size=       1KiB time=00:00:01.47 bitrate=   3.0kbits/s speed=0.0165x elapsed=0:01:29.64    \nframe=  180 fps=2.0 q=32.0 size=       1KiB time=00:00:01.49 bitrate=   3.0kbits/s speed=0.0165x elapsed=0:01:30.21    \nframe=  181 fps=2.0 q=29.0 size=       1KiB time=00:00:01.50 bitrate=   3.0kbits/s speed=0.0165x elapsed=0:01:30.78    \nframe=  182 fps=2.0 q=32.0 size=       1KiB time=00:00:01.50 bitrate=   3.0kbits/s speed=0.0165x elapsed=0:01:31.41    \nframe=  183 fps=2.0 q=31.0 size=       1KiB time=00:00:01.51 bitrate=   3.0kbits/s speed=0.0165x elapsed=0:01:32.00    \nframe=  185 fps=2.0 q=26.0 size=       1KiB time=00:00:01.53 bitrate=   2.9kbits/s speed=0.0166x elapsed=0:01:32.59    \nframe=  188 fps=2.0 q=32.0 size=       1KiB time=00:00:01.55 bitrate=   2.9kbits/s speed=0.0167x elapsed=0:01:33.18    \nframe=  189 fps=2.0 q=29.0 size=       1KiB time=00:00:01.56 bitrate=   2.9kbits/s speed=0.0167x elapsed=0:01:33.81    \nframe=  189 fps=2.0 q=29.0 size=       1KiB time=00:00:01.56 bitrate=   2.9kbits/s speed=0.0166x elapsed=0:01:34.41    \nframe=  190 fps=2.0 q=32.0 size=       1KiB time=00:00:01.57 bitrate=   2.8kbits/s speed=0.0166x elapsed=0:01:35.00    \nframe=  191 fps=2.0 q=31.0 size=       1KiB time=00:00:01.58 bitrate=   2.8kbits/s speed=0.0166x elapsed=0:01:35.56    \nframe=  193 fps=2.0 q=19.0 size=       1KiB time=00:00:01.60 bitrate=   2.8kbits/s speed=0.0166x elapsed=0:01:36.12    \nframe=  195 fps=2.0 q=31.0 size=       1KiB time=00:00:01.61 bitrate=   2.8kbits/s speed=0.0167x elapsed=0:01:36.67    \nframe=  197 fps=2.0 q=29.0 size=       1KiB time=00:00:01.63 bitrate=   2.7kbits/s speed=0.0168x elapsed=0:01:37.25    \nframe=  200 fps=2.0 q=32.0 size=       1KiB time=00:00:01.65 bitrate=   2.7kbits/s speed=0.017x elapsed=0:01:37.79    \nframe=  202 fps=2.1 q=32.0 size=       1KiB time=00:00:01.67 bitrate=   2.7kbits/s speed=0.017x elapsed=0:01:38.35    \nframe=  204 fps=2.1 q=32.0 size=       1KiB time=00:00:01.68 bitrate=   2.7kbits/s speed=0.017x elapsed=0:01:38.93    \nframe=  205 fps=2.1 q=29.0 size=       1KiB time=00:00:01.70 bitrate=   2.6kbits/s speed=0.0171x elapsed=0:01:39.50    \nframe=  207 fps=2.1 q=25.0 size=       1KiB time=00:00:01.71 bitrate=   2.6kbits/s speed=0.0172x elapsed=0:01:40.07    \nframe=  209 fps=2.1 q=19.0 size=       1KiB time=00:00:01.73 bitrate=   2.6kbits/s speed=0.0172x elapsed=0:01:40.66    \nframe=  210 fps=2.1 q=31.0 size=       1KiB time=00:00:01.74 bitrate=   2.6kbits/s speed=0.0172x elapsed=0:01:41.22    \nframe=  212 fps=2.1 q=31.0 size=       1KiB time=00:00:01.75 bitrate=   2.6kbits/s speed=0.0172x elapsed=0:01:41.78    \nframe=  213 fps=2.1 q=29.0 size=       1KiB time=00:00:01.76 bitrate=   2.5kbits/s speed=0.0173x elapsed=0:01:42.34    \nframe=  213 fps=2.1 q=29.0 size=       1KiB time=00:00:01.76 bitrate=   2.5kbits/s speed=0.0172x elapsed=0:01:42.90    \nframe=  215 fps=2.1 q=30.0 size=       1KiB time=00:00:01.78 bitrate=   2.5kbits/s speed=0.0172x elapsed=0:01:43.47    \nframe=  217 fps=2.1 q=25.0 size=       1KiB time=00:00:01.80 bitrate=   2.5kbits/s speed=0.0173x elapsed=0:01:44.05    \nframe=  220 fps=2.1 q=31.0 size=       1KiB time=00:00:01.82 bitrate=   2.5kbits/s speed=0.0174x elapsed=0:01:44.65    \nframe=  221 fps=2.1 q=28.0 size=       1KiB time=00:00:01.82 bitrate=   2.5kbits/s speed=0.0173x elapsed=0:01:45.22    \nframe=  221 fps=2.1 q=28.0 size=       1KiB time=00:00:01.83 bitrate=   2.4kbits/s speed=0.0173x elapsed=0:01:45.78    \nframe=  222 fps=2.1 q=31.0 size=       1KiB time=00:00:01.84 bitrate=   2.4kbits/s speed=0.0173x elapsed=0:01:46.33    \nframe=  223 fps=2.1 q=30.0 size=       1KiB time=00:00:01.85 bitrate=   2.4kbits/s speed=0.0173x elapsed=0:01:46.88    \nframe=  225 fps=2.1 q=17.0 size=       1KiB time=00:00:01.86 bitrate=   2.4kbits/s speed=0.0174x elapsed=0:01:47.43    \nframe=  228 fps=2.1 q=30.0 size=       1KiB time=00:00:01.89 bitrate=   2.4kbits/s speed=0.0175x elapsed=0:01:47.98    \nframe=  229 fps=2.1 q=27.0 size=       1KiB time=00:00:01.90 bitrate=   2.4kbits/s speed=0.0175x elapsed=0:01:48.54    \nframe=  232 fps=2.1 q=30.0 size=       1KiB time=00:00:01.91 bitrate=   2.3kbits/s speed=0.0176x elapsed=0:01:49.10    \nframe=  234 fps=2.1 q=30.0 size=       1KiB time=00:00:01.94 bitrate=   2.3kbits/s speed=0.0177x elapsed=0:01:49.69    \nframe=  237 fps=2.1 q=27.0 size=       1KiB time=00:00:01.96 bitrate=   2.3kbits/s speed=0.0178x elapsed=0:01:50.25    \nframe=  239 fps=2.2 q=29.0 size=       1KiB time=00:00:01.98 bitrate=   2.3kbits/s speed=0.0179x elapsed=0:01:50.82    \nframe=  241 fps=2.2 q=15.0 size=       1KiB time=00:00:02.00 bitrate=   2.2kbits/s speed=0.018x elapsed=0:01:51.39    \nframe=  242 fps=2.2 q=31.0 size=       1KiB time=00:00:02.00 bitrate=   2.2kbits/s speed=0.0179x elapsed=0:01:51.96    \nframe=  244 fps=2.2 q=31.0 size=       1KiB time=00:00:02.02 bitrate=   2.2kbits/s speed=0.018x elapsed=0:01:52.55    \nframe=  245 fps=2.2 q=28.0 size=       1KiB time=00:00:02.03 bitrate=   2.2kbits/s speed=0.018x elapsed=0:01:53.12    \nframe=  246 fps=2.2 q=31.0 size=       1KiB time=00:00:02.04 bitrate=   2.2kbits/s speed=0.018x elapsed=0:01:53.69    \nframe=  247 fps=2.2 q=30.0 size=       1KiB time=00:00:02.05 bitrate=   2.2kbits/s speed=0.0179x elapsed=0:01:54.27    \nframe=  250 fps=2.2 q=31.0 size=       1KiB time=00:00:02.07 bitrate=   2.2kbits/s speed=0.0181x elapsed=0:01:54.84    \nframe=  251 fps=2.2 q=30.0 size=       1KiB time=00:00:02.08 bitrate=   2.2kbits/s speed=0.018x elapsed=0:01:55.43    \nframe=  254 fps=2.2 q=28.0 size=       1KiB time=00:00:02.10 bitrate=   2.1kbits/s speed=0.0182x elapsed=0:01:56.01    \nframe=  255 fps=2.2 q=25.0 size=       1KiB time=00:00:02.11 bitrate=   2.1kbits/s speed=0.0182x elapsed=0:01:56.58    \nframe=  257 fps=2.2 q=19.0 size=       1KiB time=00:00:02.13 bitrate=   2.1kbits/s speed=0.0182x elapsed=0:01:57.17    \nframe=  259 fps=2.2 q=31.0 size=       1KiB time=00:00:02.14 bitrate=   2.1kbits/s speed=0.0182x elapsed=0:01:57.74    \nframe=  261 fps=2.2 q=29.0 size=       1KiB time=00:00:02.15 bitrate=   2.1kbits/s speed=0.0182x elapsed=0:01:58.33    \nframe=  262 fps=2.2 q=32.0 size=       1KiB time=00:00:02.16 bitrate=   2.1kbits/s speed=0.0182x elapsed=0:01:58.88    \nframe=  263 fps=2.2 q=31.0 size=       1KiB time=00:00:02.18 bitrate=   2.1kbits/s speed=0.0183x elapsed=0:01:59.46    \nframe=  266 fps=2.2 q=32.0 size=       1KiB time=00:00:02.20 bitrate=   2.0kbits/s speed=0.0183x elapsed=0:02:00.04    \nframe=  268 fps=2.2 q=27.0 size=       1KiB time=00:00:02.22 bitrate=   2.0kbits/s speed=0.0184x elapsed=0:02:00.62    \nframe=  271 fps=2.2 q=27.0 size=       1KiB time=00:00:02.24 bitrate=   2.0kbits/s speed=0.0185x elapsed=0:02:01.17    \nframe=  272 fps=2.2 q=30.0 size=       1KiB time=00:00:02.25 bitrate=   2.0kbits/s speed=0.0185x elapsed=0:02:01.74    \nframe=  273 fps=2.2 q=18.0 size=       1KiB time=00:00:02.26 bitrate=   2.0kbits/s speed=0.0185x elapsed=0:02:02.32    \nframe=  276 fps=2.2 q=32.0 size=       1KiB time=00:00:02.28 bitrate=   2.0kbits/s speed=0.0186x elapsed=0:02:02.90    \nframe=  278 fps=2.3 q=32.0 size=       1KiB time=00:00:02.30 bitrate=   1.9kbits/s speed=0.0187x elapsed=0:02:03.46    \nframe=  279 fps=2.2 q=31.0 size=       1KiB time=00:00:02.30 bitrate=   1.9kbits/s speed=0.0186x elapsed=0:02:04.04    \nframe=  280 fps=2.2 q=28.0 size=       1KiB time=00:00:02.31 bitrate=   1.9kbits/s speed=0.0186x elapsed=0:02:04.62    \nframe=  282 fps=2.3 q=31.0 size=       1KiB time=00:00:02.34 bitrate=   1.9kbits/s speed=0.0187x elapsed=0:02:05.18    \nframe=  283 fps=2.3 q=30.0 size=       1KiB time=00:00:02.35 bitrate=   1.9kbits/s speed=0.0187x elapsed=0:02:05.74    \nframe=  286 fps=2.3 q=31.0 size=       1KiB time=00:00:02.36 bitrate=   1.9kbits/s speed=0.0187x elapsed=0:02:06.30    \nframe=  288 fps=2.3 q=31.0 size=       1KiB time=00:00:02.39 bitrate=   1.9kbits/s speed=0.0189x elapsed=0:02:06.86    \nframe=  290 fps=2.3 q=32.0 size=       1KiB time=00:00:02.40 bitrate=   1.9kbits/s speed=0.0189x elapsed=0:02:07.42    \nframe=  293 fps=2.3 q=30.0 size=       1KiB time=00:00:02.42 bitrate=   1.8kbits/s speed=0.0189x elapsed=0:02:07.99    \nframe=  293 fps=2.3 q=30.0 size=       1KiB time=00:00:02.43 bitrate=   1.8kbits/s speed=0.0189x elapsed=0:02:08.55    \nframe=  295 fps=2.3 q=31.0 size=       1KiB time=00:00:02.45 bitrate=   1.8kbits/s speed=0.019x elapsed=0:02:09.12    \nframe=  299 fps=2.3 q=31.0 size=       1KiB time=00:00:02.47 bitrate=   1.8kbits/s speed=0.0191x elapsed=0:02:09.68    \nframe=  300 fps=2.3 q=32.0 size=       1KiB time=00:00:02.49 bitrate=   1.8kbits/s speed=0.0191x elapsed=0:02:10.22    \nframe=  303 fps=2.3 q=29.0 size=       1KiB time=00:00:02.51 bitrate=   1.8kbits/s speed=0.0192x elapsed=0:02:10.78    \nframe=  305 fps=2.3 q=24.0 size=       1KiB time=00:00:02.53 bitrate=   1.8kbits/s speed=0.0193x elapsed=0:02:11.34    \nframe=  306 fps=2.3 q=31.0 size=       1KiB time=00:00:02.54 bitrate=   1.8kbits/s speed=0.0193x elapsed=0:02:11.92    \nframe=  308 fps=2.3 q=31.0 size=       1KiB time=00:00:02.55 bitrate=   1.8kbits/s speed=0.0193x elapsed=0:02:12.48    \nframe=  310 fps=2.3 q=31.0 size=       1KiB time=00:00:02.57 bitrate=   1.7kbits/s speed=0.0194x elapsed=0:02:13.05    \nframe=  310 fps=2.3 q=31.0 size=       1KiB time=00:00:02.57 bitrate=   1.7kbits/s speed=0.0193x elapsed=0:02:13.61    \nframe=  311 fps=2.3 q=30.0 size=       1KiB time=00:00:02.58 bitrate=   1.7kbits/s speed=0.0193x elapsed=0:02:14.17    \nframe=  312 fps=2.3 q=31.0 size=       1KiB time=00:00:02.59 bitrate=   1.7kbits/s speed=0.0192x elapsed=0:02:14.75    \nframe=  315 fps=2.3 q=28.0 size=       1KiB time=00:00:02.61 bitrate=   1.7kbits/s speed=0.0193x elapsed=0:02:15.32    \nframe=  316 fps=2.3 q=30.0 size=       1KiB time=00:00:02.62 bitrate=   1.7kbits/s speed=0.0193x elapsed=0:02:15.91    \nframe=  318 fps=2.3 q=30.0 size=       1KiB time=00:00:02.64 bitrate=   1.7kbits/s speed=0.0194x elapsed=0:02:16.49    \nframe=  320 fps=2.3 q=30.0 size=       1KiB time=00:00:02.65 bitrate=   1.7kbits/s speed=0.0194x elapsed=0:02:17.03    \nframe=  322 fps=2.3 q=31.0 size=       1KiB time=00:00:02.67 bitrate=   1.7kbits/s speed=0.0194x elapsed=0:02:17.60    \nframe=  324 fps=2.3 q=31.0 size=       1KiB time=00:00:02.69 bitrate=   1.7kbits/s speed=0.0195x elapsed=0:02:18.15    \nframe=  326 fps=2.4 q=31.0 size=       1KiB time=00:00:02.70 bitrate=   1.7kbits/s speed=0.0195x elapsed=0:02:18.69    \nframe=  327 fps=2.3 q=30.0 size=       1KiB time=00:00:02.71 bitrate=   1.6kbits/s speed=0.0195x elapsed=0:02:19.24    \nframe=  329 fps=2.4 q=25.0 size=       1KiB time=00:00:02.73 bitrate=   1.6kbits/s speed=0.0195x elapsed=0:02:19.83    \nframe=  332 fps=2.4 q=31.0 size=       1KiB time=00:00:02.75 bitrate=   1.6kbits/s speed=0.0196x elapsed=0:02:20.40    \nframe=  333 fps=2.4 q=28.0 size=       1KiB time=00:00:02.76 bitrate=   1.6kbits/s speed=0.0196x elapsed=0:02:21.00    \nframe=  335 fps=2.4 q=30.0 size=       1KiB time=00:00:02.78 bitrate=   1.6kbits/s speed=0.0197x elapsed=0:02:21.58    \nframe=  337 fps=2.4 q=18.0 size=       1KiB time=00:00:02.80 bitrate=   1.6kbits/s speed=0.0197x elapsed=0:02:22.17    \nframe=  338 fps=2.4 q=31.0 size=       1KiB time=00:00:02.80 bitrate=   1.6kbits/s speed=0.0197x elapsed=0:02:22.74    \nframe=  340 fps=2.4 q=31.0 size=       1KiB time=00:00:02.82 bitrate=   1.6kbits/s speed=0.0197x elapsed=0:02:23.30    \nframe=  341 fps=2.4 q=29.0 size=       1KiB time=00:00:02.83 bitrate=   1.6kbits/s speed=0.0197x elapsed=0:02:23.88    \nframe=  342 fps=2.4 q=31.0 size=       1KiB time=00:00:02.84 bitrate=   1.6kbits/s speed=0.0197x elapsed=0:02:24.46    \nframe=  344 fps=2.4 q=31.0 size=       1KiB time=00:00:02.85 bitrate=   1.6kbits/s speed=0.0197x elapsed=0:02:25.05    \nframe=  346 fps=2.4 q=31.0 size=       1KiB time=00:00:02.87 bitrate=   1.6kbits/s speed=0.0197x elapsed=0:02:25.61    \nframe=  348 fps=2.4 q=31.0 size=       1KiB time=00:00:02.89 bitrate=   1.5kbits/s speed=0.0198x elapsed=0:02:26.18    \nframe=  349 fps=2.4 q=29.0 size=       1KiB time=00:00:02.90 bitrate=   1.5kbits/s speed=0.0198x elapsed=0:02:26.75    \nframe=  352 fps=2.4 q=28.0 size=       1KiB time=00:00:02.92 bitrate=   1.5kbits/s speed=0.0199x elapsed=0:02:27.33    \nframe=  355 fps=2.4 q=30.0 size=       1KiB time=00:00:02.94 bitrate=   1.5kbits/s speed=0.0199x elapsed=0:02:27.87    \nframe=  356 fps=2.4 q=31.0 size=       1KiB time=00:00:02.95 bitrate=   1.5kbits/s speed=0.0199x elapsed=0:02:28.45    \nframe=  358 fps=2.4 q=31.0 size=       1KiB time=00:00:02.97 bitrate=   1.5kbits/s speed=0.02x elapsed=0:02:29.01    \nframe=  359 fps=2.4 q=30.0 size=       1KiB time=00:00:02.98 bitrate=   1.5kbits/s speed=0.0199x elapsed=0:02:29.58    \nframe=  359 fps=2.4 q=30.0 size=       1KiB time=00:00:02.98 bitrate=   1.5kbits/s speed=0.0199x elapsed=0:02:30.18    \nframe=  362 fps=2.4 q=30.0 size=       1KiB time=00:00:03.00 bitrate=   1.5kbits/s speed=0.02x elapsed=0:02:30.76    \nframe=  363 fps=2.4 q=29.0 size=       1KiB time=00:00:03.01 bitrate=   1.5kbits/s speed=0.0199x elapsed=0:02:31.33    \nframe=  365 fps=2.4 q=27.0 size=       1KiB time=00:00:03.03 bitrate=   1.5kbits/s speed=0.02x elapsed=0:02:31.89    \nframe=  367 fps=2.4 q=29.0 size=       1KiB time=00:00:03.05 bitrate=   1.5kbits/s speed=0.02x elapsed=0:02:32.48    \nframe=  368 fps=2.4 q=30.0 size=       1KiB time=00:00:03.05 bitrate=   1.5kbits/s speed=0.02x elapsed=0:02:33.08    \nframe=  370 fps=2.4 q=31.0 size=       1KiB time=00:00:03.07 bitrate=   1.5kbits/s speed=0.02x elapsed=0:02:33.68    \nframe=  372 fps=2.4 q=31.0 size=       1KiB time=00:00:03.08 bitrate=   1.5kbits/s speed=0.02x elapsed=0:02:34.26    \nframe=  373 fps=2.4 q=29.0 size=       1KiB time=00:00:03.10 bitrate=   1.4kbits/s speed=0.02x elapsed=0:02:34.84    \nframe=  375 fps=2.4 q=30.0 size=       1KiB time=00:00:03.11 bitrate=   1.4kbits/s speed=0.02x elapsed=0:02:35.44    \nframe=  376 fps=2.4 q=31.0 size=       1KiB time=00:00:03.12 bitrate=   1.4kbits/s speed=0.02x elapsed=0:02:36.05    \nframe=  379 fps=2.4 q=30.0 size=       1KiB time=00:00:03.15 bitrate=   1.4kbits/s speed=0.0201x elapsed=0:02:36.63    \nframe=  380 fps=2.4 q=31.0 size=       1KiB time=00:00:03.15 bitrate=   1.4kbits/s speed=0.0201x elapsed=0:02:37.21    \nframe=  383 fps=2.4 q=28.0 size=       1KiB time=00:00:03.18 bitrate=   1.4kbits/s speed=0.0202x elapsed=0:02:37.78    \nframe=  385 fps=2.4 q=23.0 size=       1KiB time=00:00:03.20 bitrate=   1.4kbits/s speed=0.0202x elapsed=0:02:38.34    \nframe=  387 fps=2.4 q=30.0 size=       1KiB time=00:00:03.21 bitrate=   1.4kbits/s speed=0.0202x elapsed=0:02:38.90    \nframe=  388 fps=2.4 q=31.0 size=       1KiB time=00:00:03.22 bitrate=   1.4kbits/s speed=0.0202x elapsed=0:02:39.47    \nframe=  389 fps=2.4 q=28.0 size=       1KiB time=00:00:03.23 bitrate=   1.4kbits/s speed=0.0202x elapsed=0:02:40.06    \nframe=  390 fps=2.4 q=29.0 size=       1KiB time=00:00:03.24 bitrate=   1.4kbits/s speed=0.0202x elapsed=0:02:40.64    \nframe=  391 fps=2.4 q=27.0 size=       1KiB time=00:00:03.25 bitrate=   1.4kbits/s speed=0.0202x elapsed=0:02:41.21    \nframe=  392 fps=2.4 q=29.0 size=       1KiB time=00:00:03.25 bitrate=   1.4kbits/s speed=0.0201x elapsed=0:02:41.77    \nframe=  393 fps=2.4 q=25.0 size=       1KiB time=00:00:03.26 bitrate=   1.4kbits/s speed=0.0201x elapsed=0:02:42.33    \nframe=  395 fps=2.4 q=29.0 size=       1KiB time=00:00:03.28 bitrate=   1.4kbits/s speed=0.0202x elapsed=0:02:42.90    \nframe=  399 fps=2.4 q=30.0 size=       1KiB time=00:00:03.31 bitrate=   1.4kbits/s speed=0.0203x elapsed=0:02:43.46    \nframe=  401 fps=2.4 q=19.0 size=       1KiB time=00:00:03.33 bitrate=   1.3kbits/s speed=0.0203x elapsed=0:02:44.03    \nframe=  403 fps=2.4 q=31.0 size=       1KiB time=00:00:03.35 bitrate=   1.3kbits/s speed=0.0204x elapsed=0:02:44.59    \nframe=  405 fps=2.5 q=30.0 size=       1KiB time=00:00:03.36 bitrate=   1.3kbits/s speed=0.0204x elapsed=0:02:45.15    \nframe=  407 fps=2.5 q=31.0 size=       1KiB time=00:00:03.38 bitrate=   1.3kbits/s speed=0.0204x elapsed=0:02:45.73    \nframe=  409 fps=2.5 q=27.0 size=       1KiB time=00:00:03.39 bitrate=   1.3kbits/s speed=0.0204x elapsed=0:02:46.30    \nframe=  411 fps=2.5 q=31.0 size=       1KiB time=00:00:03.41 bitrate=   1.3kbits/s speed=0.0205x elapsed=0:02:46.87    \nframe=  413 fps=2.5 q=30.0 size=       1KiB time=00:00:03.43 bitrate=   1.3kbits/s speed=0.0205x elapsed=0:02:47.44    \nframe=  416 fps=2.5 q=29.0 size=       1KiB time=00:00:03.45 bitrate=   1.3kbits/s speed=0.0206x elapsed=0:02:48.00    \nframe=  418 fps=2.5 q=32.0 size=       1KiB time=00:00:03.47 bitrate=   1.3kbits/s speed=0.0206x elapsed=0:02:48.56    \nframe=  420 fps=2.5 q=32.0 size=       1KiB time=00:00:03.49 bitrate=   1.3kbits/s speed=0.0206x elapsed=0:02:49.14    \nframe=  421 fps=2.5 q=29.0 size=       1KiB time=00:00:03.50 bitrate=   1.3kbits/s speed=0.0206x elapsed=0:02:49.70    \nframe=  422 fps=2.5 q=32.0 size=       1KiB time=00:00:03.50 bitrate=   1.3kbits/s speed=0.0206x elapsed=0:02:50.26    \nframe=  423 fps=2.5 q=31.0 size=       1KiB time=00:00:03.51 bitrate=   1.3kbits/s speed=0.0206x elapsed=0:02:50.84    \nframe=  425 fps=2.5 q=26.0 size=       1KiB time=00:00:03.53 bitrate=   1.3kbits/s speed=0.0206x elapsed=0:02:51.42    \nframe=  427 fps=2.5 q=31.0 size=       1KiB time=00:00:03.55 bitrate=   1.3kbits/s speed=0.0206x elapsed=0:02:52.01    \nframe=  429 fps=2.5 q=29.0 size=       1KiB time=00:00:03.56 bitrate=   1.3kbits/s speed=0.0207x elapsed=0:02:52.60    \nframe=  432 fps=2.5 q=29.0 size=       1KiB time=00:00:03.59 bitrate=   1.2kbits/s speed=0.0207x elapsed=0:02:53.19    \nframe=  434 fps=2.5 q=32.0 size=       1KiB time=00:00:03.60 bitrate=   1.2kbits/s speed=0.0208x elapsed=0:02:53.77    \nframe=  436 fps=2.5 q=32.0 size=       1KiB time=00:00:03.62 bitrate=   1.2kbits/s speed=0.0208x elapsed=0:02:54.36    \nframe=  437 fps=2.5 q=29.0 size=       1KiB time=00:00:03.63 bitrate=   1.2kbits/s speed=0.0208x elapsed=0:02:54.94    \nframe=  438 fps=2.5 q=32.0 size=       1KiB time=00:00:03.64 bitrate=   1.2kbits/s speed=0.0207x elapsed=0:02:55.50    \nframe=  440 fps=2.5 q=32.0 size=       1KiB time=00:00:03.65 bitrate=   1.2kbits/s speed=0.0208x elapsed=0:02:56.08    \nframe=  442 fps=2.5 q=32.0 size=       1KiB time=00:00:03.67 bitrate=   1.2kbits/s speed=0.0208x elapsed=0:02:56.64    \nframe=  444 fps=2.5 q=32.0 size=       1KiB time=00:00:03.69 bitrate=   1.2kbits/s speed=0.0208x elapsed=0:02:57.21    \nframe=  445 fps=2.5 q=29.0 size=       1KiB time=00:00:03.70 bitrate=   1.2kbits/s speed=0.0208x elapsed=0:02:57.79    \nframe=  446 fps=2.5 q=32.0 size=       1KiB time=00:00:03.70 bitrate=   1.2kbits/s speed=0.0208x elapsed=0:02:58.35    \nframe=  447 fps=2.5 q=31.0 size=       1KiB time=00:00:03.71 bitrate=   1.2kbits/s speed=0.0208x elapsed=0:02:58.92    \nframe=  450 fps=2.5 q=32.0 size=       1KiB time=00:00:03.73 bitrate=   1.2kbits/s speed=0.0208x elapsed=0:02:59.50    \nframe=  452 fps=2.5 q=32.0 size=       1KiB time=00:00:03.75 bitrate=   1.2kbits/s speed=0.0209x elapsed=0:03:00.07    \nframe=  454 fps=2.5 q=32.0 size=       1KiB time=00:00:03.76 bitrate=   1.2kbits/s speed=0.0209x elapsed=0:03:00.63    \nframe=  454 fps=2.5 q=32.0 size=       1KiB time=00:00:03.77 bitrate=   1.2kbits/s speed=0.0208x elapsed=0:03:01.19    \nframe=  456 fps=2.5 q=32.0 size=       1KiB time=00:00:03.79 bitrate=   1.2kbits/s speed=0.0209x elapsed=0:03:01.78    \nframe=  457 fps=2.5 q=26.0 size=       1KiB time=00:00:03.80 bitrate=   1.2kbits/s speed=0.0208x elapsed=0:03:02.36    \nframe=  459 fps=2.5 q=31.0 size=       1KiB time=00:00:03.81 bitrate=   1.2kbits/s speed=0.0209x elapsed=0:03:02.94    \nframe=  460 fps=2.5 q=32.0 size=       1KiB time=00:00:03.82 bitrate=   1.2kbits/s speed=0.0208x elapsed=0:03:03.48    \nframe=  460 fps=2.5 q=32.0 size=       1KiB time=00:00:03.82 bitrate=   1.2kbits/s speed=0.0208x elapsed=0:03:04.05    \nframe=  461 fps=2.5 q=29.0 size=       1KiB time=00:00:03.83 bitrate=   1.2kbits/s speed=0.0208x elapsed=0:03:04.61    \nframe=  461 fps=2.5 q=29.0 size=       1KiB time=00:00:03.83 bitrate=   1.2kbits/s speed=0.0207x elapsed=0:03:05.19    \nframe=  462 fps=2.5 q=32.0 size=       1KiB time=00:00:03.84 bitrate=   1.2kbits/s speed=0.0207x elapsed=0:03:05.77    \nframe=  462 fps=2.5 q=32.0 size=       1KiB time=00:00:03.84 bitrate=   1.2kbits/s speed=0.0206x elapsed=0:03:06.33    \nframe=  464 fps=2.5 q=32.0 size=       1KiB time=00:00:03.85 bitrate=   1.2kbits/s speed=0.0206x elapsed=0:03:06.87    \nframe=  466 fps=2.5 q=32.0 size=       1KiB time=00:00:03.87 bitrate=   1.2kbits/s speed=0.0207x elapsed=0:03:07.42    \nframe=  467 fps=2.5 q=31.0 size=       1KiB time=00:00:03.88 bitrate=   1.2kbits/s speed=0.0207x elapsed=0:03:07.97    \nframe=  469 fps=2.5 q=29.0 size=       1KiB time=00:00:03.90 bitrate=   1.1kbits/s speed=0.0207x elapsed=0:03:08.53    \nframe=  469 fps=2.5 q=29.0 size=       1KiB time=00:00:03.90 bitrate=   1.1kbits/s speed=0.0206x elapsed=0:03:09.09    \nframe=  470 fps=2.5 q=32.0 size=       1KiB time=00:00:03.90 bitrate=   1.1kbits/s speed=0.0206x elapsed=0:03:09.66    \nframe=  471 fps=2.5 q=31.0 size=       1KiB time=00:00:03.91 bitrate=   1.1kbits/s speed=0.0206x elapsed=0:03:10.24    \nframe=  472 fps=2.5 q=32.0 size=       1KiB time=00:00:03.92 bitrate=   1.1kbits/s speed=0.0206x elapsed=0:03:10.81    \nframe=  474 fps=2.5 q=32.0 size=       1KiB time=00:00:03.93 bitrate=   1.1kbits/s speed=0.0206x elapsed=0:03:11.38    \nframe=  476 fps=2.5 q=32.0 size=       1KiB time=00:00:03.95 bitrate=   1.1kbits/s speed=0.0206x elapsed=0:03:11.94    \nframe=  477 fps=2.5 q=29.0 size=       1KiB time=00:00:03.96 bitrate=   1.1kbits/s speed=0.0206x elapsed=0:03:12.50    \nframe=  478 fps=2.5 q=32.0 size=       1KiB time=00:00:03.97 bitrate=   1.1kbits/s speed=0.0206x elapsed=0:03:13.10    \nframe=  478 fps=2.5 q=32.0 size=       1KiB time=00:00:03.97 bitrate=   1.1kbits/s speed=0.0205x elapsed=0:03:13.66    \nframe=  479 fps=2.5 q=31.0 size=       1KiB time=00:00:03.98 bitrate=   1.1kbits/s speed=0.0205x elapsed=0:03:14.23    \nframe=  480 fps=2.5 q=32.0 size=       1KiB time=00:00:03.99 bitrate=   1.1kbits/s speed=0.0205x elapsed=0:03:14.80    \nframe=  482 fps=2.5 q=32.0 size=       1KiB time=00:00:04.00 bitrate=   1.1kbits/s speed=0.0205x elapsed=0:03:15.37    \nframe=  483 fps=2.5 q=31.0 size=       1KiB time=00:00:04.00 bitrate=   1.1kbits/s speed=0.0205x elapsed=0:03:15.96    \nframe=  485 fps=2.5 q=29.0 size=       1KiB time=00:00:04.03 bitrate=   1.1kbits/s speed=0.0205x elapsed=0:03:16.54    \nframe=  486 fps=2.5 q=32.0 size=       1KiB time=00:00:04.04 bitrate=   1.1kbits/s speed=0.0205x elapsed=0:03:17.12    \nframe=  487 fps=2.5 q=31.0 size=       1KiB time=00:00:04.05 bitrate=   1.1kbits/s speed=0.0205x elapsed=0:03:17.68    \nframe=  489 fps=2.5 q=25.0 size=       1KiB time=00:00:04.06 bitrate=   1.1kbits/s speed=0.0205x elapsed=0:03:18.26    \nframe=  490 fps=2.5 q=32.0 size=       1KiB time=00:00:04.07 bitrate=   1.1kbits/s speed=0.0205x elapsed=0:03:18.84    \nframe=  492 fps=2.5 q=32.0 size=       1KiB time=00:00:04.09 bitrate=   1.1kbits/s speed=0.0205x elapsed=0:03:19.40    \nframe=  492 fps=2.5 q=32.0 size=       1KiB time=00:00:04.09 bitrate=   1.1kbits/s speed=0.0205x elapsed=0:03:19.96    \nframe=  492 fps=2.5 q=32.0 size=       1KiB time=00:00:04.09 bitrate=   1.1kbits/s speed=0.0204x elapsed=0:03:20.52    \nframe=  493 fps=2.5 q=29.0 size=       1KiB time=00:00:04.10 bitrate=   1.1kbits/s speed=0.0204x elapsed=0:03:21.10    \nframe=  493 fps=2.4 q=29.0 size=       1KiB time=00:00:04.10 bitrate=   1.1kbits/s speed=0.0203x elapsed=0:03:21.66    \nframe=  494 fps=2.4 q=32.0 size=       1KiB time=00:00:04.10 bitrate=   1.1kbits/s speed=0.0203x elapsed=0:03:22.21    \nframe=  494 fps=2.4 q=32.0 size=       1KiB time=00:00:04.10 bitrate=   1.1kbits/s speed=0.0203x elapsed=0:03:22.77    \nframe=  496 fps=2.4 q=32.0 size=       1KiB time=00:00:04.12 bitrate=   1.1kbits/s speed=0.0203x elapsed=0:03:23.33    \nframe=  498 fps=2.4 q=31.0 size=       1KiB time=00:00:04.14 bitrate=   1.1kbits/s speed=0.0203x elapsed=0:03:23.88    \nframe=  500 fps=2.4 q=31.0 size=       1KiB time=00:00:04.15 bitrate=   1.1kbits/s speed=0.0203x elapsed=0:03:24.43    \nframe=  501 fps=2.4 q=28.0 size=       1KiB time=00:00:04.16 bitrate=   1.1kbits/s speed=0.0203x elapsed=0:03:25.00    \nframe=  505 fps=2.5 q=24.0 size=       1KiB time=00:00:04.20 bitrate=   1.1kbits/s speed=0.0204x elapsed=0:03:25.55    \nframe=  507 fps=2.5 q=30.0 size=       1KiB time=00:00:04.21 bitrate=   1.1kbits/s speed=0.0205x elapsed=0:03:26.12    \nframe=  509 fps=2.5 q=28.0 size=       1KiB time=00:00:04.23 bitrate=   1.1kbits/s speed=0.0205x elapsed=0:03:26.70    \nframe=  513 fps=2.5 q=16.0 size=       1KiB time=00:00:04.26 bitrate=   1.0kbits/s speed=0.0206x elapsed=0:03:27.25    \nframe=  513 fps=2.5 q=16.0 size=       1KiB time=00:00:04.26 bitrate=   1.0kbits/s speed=0.0205x elapsed=0:03:27.82    \nframe=  513 fps=2.5 q=16.0 size=       1KiB time=00:00:04.26 bitrate=   1.0kbits/s speed=0.0205x elapsed=0:03:28.40    \nframe=  513 fps=2.5 q=16.0 size=       1KiB time=00:00:04.26 bitrate=   1.0kbits/s speed=0.0204x elapsed=0:03:28.94    \nframe=  513 fps=2.4 q=16.0 size=       1KiB time=00:00:04.26 bitrate=   1.0kbits/s speed=0.0204x elapsed=0:03:29.50    \nframe=  513 fps=2.4 q=16.0 size=       1KiB time=00:00:04.26 bitrate=   1.0kbits/s speed=0.0203x elapsed=0:03:30.07    \nframe=  513 fps=2.4 q=16.0 size=       1KiB time=00:00:04.26 bitrate=   1.0kbits/s speed=0.0203x elapsed=0:03:30.63    \nframe=  513 fps=2.4 q=16.0 size=       1KiB time=00:00:04.26 bitrate=   1.0kbits/s speed=0.0202x elapsed=0:03:31.20    \nframe=  513 fps=2.4 q=16.0 size=       1KiB time=00:00:04.26 bitrate=   1.0kbits/s speed=0.0201x elapsed=0:03:31.76    \nframe=  517 fps=2.4 q=29.0 size=       1KiB time=00:00:04.30 bitrate=   1.0kbits/s speed=0.0203x elapsed=0:03:32.32    \nframe=  517 fps=2.4 q=29.0 size=       1KiB time=00:00:04.30 bitrate=   1.0kbits/s speed=0.0202x elapsed=0:03:32.88    \nframe=  521 fps=2.4 q=25.0 size=       1KiB time=00:00:04.31 bitrate=   1.0kbits/s speed=0.0202x elapsed=0:03:33.45    \nframe=  521 fps=2.4 q=25.0 size=       1KiB time=00:00:04.33 bitrate=   1.0kbits/s speed=0.0202x elapsed=0:03:34.04    \nframe=  521 fps=2.4 q=25.0 size=       1KiB time=00:00:04.33 bitrate=   1.0kbits/s speed=0.0202x elapsed=0:03:34.61    \nframe=  525 fps=2.4 q=29.0 size=       1KiB time=00:00:04.36 bitrate=   1.0kbits/s speed=0.0203x elapsed=0:03:35.18    \nframe=  527 fps=2.4 q=31.0 size=       1KiB time=00:00:04.38 bitrate=   1.0kbits/s speed=0.0203x elapsed=0:03:35.74    \nframe=  529 fps=2.4 q=18.0 size=       1KiB time=00:00:04.40 bitrate=   1.0kbits/s speed=0.0203x elapsed=0:03:36.30    \nframe=  529 fps=2.4 q=18.0 size=       1KiB time=00:00:04.40 bitrate=   1.0kbits/s speed=0.0203x elapsed=0:03:36.86    \nframe=  529 fps=2.4 q=18.0 size=       1KiB time=00:00:04.40 bitrate=   1.0kbits/s speed=0.0202x elapsed=0:03:37.42    \nframe=  529 fps=2.4 q=18.0 size=       1KiB time=00:00:04.40 bitrate=   1.0kbits/s speed=0.0202x elapsed=0:03:37.98    \nframe=  529 fps=2.4 q=18.0 size=       1KiB time=00:00:04.40 bitrate=   1.0kbits/s speed=0.0201x elapsed=0:03:38.52    \nframe=  529 fps=2.4 q=18.0 size=       1KiB time=00:00:04.40 bitrate=   1.0kbits/s speed=0.0201x elapsed=0:03:39.10    \nframe=  531 fps=2.4 q=31.0 size=       1KiB time=00:00:04.41 bitrate=   1.0kbits/s speed=0.0201x elapsed=0:03:39.66    \nframe=  533 fps=2.4 q=29.0 size=       1KiB time=00:00:04.43 bitrate=   1.0kbits/s speed=0.0201x elapsed=0:03:40.22    \nframe=  535 fps=2.4 q=31.0 size=       1KiB time=00:00:04.45 bitrate=   1.0kbits/s speed=0.0202x elapsed=0:03:40.78    \nframe=  537 fps=2.4 q=26.0 size=       1KiB time=00:00:04.46 bitrate=   1.0kbits/s speed=0.0202x elapsed=0:03:41.34    \nframe=  537 fps=2.4 q=26.0 size=       1KiB time=00:00:04.46 bitrate=   1.0kbits/s speed=0.0201x elapsed=0:03:41.90    \nframe=  537 fps=2.4 q=26.0 size=       1KiB time=00:00:04.46 bitrate=   1.0kbits/s speed=0.0201x elapsed=0:03:42.46    \nframe=  541 fps=2.4 q=29.0 size=       1KiB time=00:00:04.50 bitrate=   1.0kbits/s speed=0.0202x elapsed=0:03:43.01    \nframe=  541 fps=2.4 q=29.0 size=       1KiB time=00:00:04.50 bitrate=   1.0kbits/s speed=0.0201x elapsed=0:03:43.58    \nframe=  545 fps=2.4 q=19.0 size=       1KiB time=00:00:04.53 bitrate=   1.0kbits/s speed=0.0202x elapsed=0:03:44.14    \nframe=  545 fps=2.4 q=19.0 size=       1KiB time=00:00:04.53 bitrate=   1.0kbits/s speed=0.0202x elapsed=0:03:44.70    \nframe=  545 fps=2.4 q=19.0 size=       1KiB time=00:00:04.53 bitrate=   1.0kbits/s speed=0.0201x elapsed=0:03:45.27    \nframe=  545 fps=2.4 q=19.0 size=       1KiB time=00:00:04.53 bitrate=   1.0kbits/s speed=0.0201x elapsed=0:03:45.82    \nframe=  545 fps=2.4 q=19.0 size=       1KiB time=00:00:04.53 bitrate=   1.0kbits/s speed=0.02x elapsed=0:03:46.39    \nframe=  545 fps=2.4 q=19.0 size=       1KiB time=00:00:04.53 bitrate=   1.0kbits/s speed=0.02x elapsed=0:03:46.97    \nframe=  545 fps=2.4 q=19.0 size=       1KiB time=00:00:04.53 bitrate=   1.0kbits/s speed=0.0199x elapsed=0:03:47.56    \nframe=  547 fps=2.4 q=30.0 size=       1KiB time=00:00:04.53 bitrate=   1.0kbits/s speed=0.0199x elapsed=0:03:48.12    \nframe=  549 fps=2.4 q=29.0 size=       1KiB time=00:00:04.56 bitrate=   1.0kbits/s speed=0.02x elapsed=0:03:48.70    \nframe=  549 fps=2.4 q=29.0 size=       1KiB time=00:00:04.56 bitrate=   1.0kbits/s speed=0.0199x elapsed=0:03:49.27    \nframe=  553 fps=2.4 q=26.0 size=       1KiB time=00:00:04.60 bitrate=   1.0kbits/s speed=0.02x elapsed=0:03:49.83    \nframe=  553 fps=2.4 q=26.0 size=       1KiB time=00:00:04.60 bitrate=   1.0kbits/s speed=0.02x elapsed=0:03:50.39    \nframe=  553 fps=2.4 q=26.0 size=       1KiB time=00:00:04.60 bitrate=   1.0kbits/s speed=0.0199x elapsed=0:03:50.94    \nframe=  555 fps=2.4 q=30.0 size=       1KiB time=00:00:04.61 bitrate=   1.0kbits/s speed=0.0199x elapsed=0:03:51.48    \nframe=  557 fps=2.4 q=29.0 size=       1KiB time=00:00:04.63 bitrate=   1.0kbits/s speed=0.02x elapsed=0:03:52.05    \nframe=  559 fps=2.4 q=30.0 size=       1KiB time=00:00:04.65 bitrate=   1.0kbits/s speed=0.02x elapsed=0:03:52.60    \nframe=  561 fps=2.4 q=19.0 size=       1KiB time=00:00:04.66 bitrate=   1.0kbits/s speed=0.02x elapsed=0:03:53.16    \nframe=  561 fps=2.4 q=19.0 size=       1KiB time=00:00:04.66 bitrate=   1.0kbits/s speed=0.02x elapsed=0:03:53.73    \nframe=  561 fps=2.4 q=19.0 size=       1KiB time=00:00:04.66 bitrate=   1.0kbits/s speed=0.0199x elapsed=0:03:54.30    \nframe=  561 fps=2.4 q=19.0 size=       1KiB time=00:00:04.66 bitrate=   1.0kbits/s speed=0.0199x elapsed=0:03:54.87    \nframe=  561 fps=2.4 q=19.0 size=       1KiB time=00:00:04.66 bitrate=   1.0kbits/s speed=0.0198x elapsed=0:03:55.48    \nframe=  561 fps=2.4 q=19.0 size=       1KiB time=00:00:04.66 bitrate=   1.0kbits/s speed=0.0198x elapsed=0:03:56.05    \nframe=  563 fps=2.4 q=30.0 size=       1KiB time=00:00:04.68 bitrate=   1.0kbits/s speed=0.0198x elapsed=0:03:56.67    \nframe=  565 fps=2.4 q=28.0 size=       1KiB time=00:00:04.70 bitrate=   1.0kbits/s speed=0.0198x elapsed=0:03:57.25    \nframe=  567 fps=2.4 q=30.0 size=       1KiB time=00:00:04.70 bitrate=   1.0kbits/s speed=0.0198x elapsed=0:03:57.82    \nframe=  569 fps=2.4 q=24.0 size=       1KiB time=00:00:04.73 bitrate=   0.9kbits/s speed=0.0199x elapsed=0:03:58.40    \nframe=  569 fps=2.4 q=24.0 size=       1KiB time=00:00:04.73 bitrate=   0.9kbits/s speed=0.0198x elapsed=0:03:58.99    \nframe=  569 fps=2.4 q=24.0 size=       1KiB time=00:00:04.73 bitrate=   0.9kbits/s speed=0.0198x elapsed=0:03:59.56    \nframe=  569 fps=2.4 q=24.0 size=       1KiB time=00:00:04.73 bitrate=   0.9kbits/s speed=0.0197x elapsed=0:04:00.12    \nframe=  569 fps=2.4 q=24.0 size=       1KiB time=00:00:04.73 bitrate=   0.9kbits/s speed=0.0197x elapsed=0:04:00.69    \nframe=  573 fps=2.4 q=28.0 size=       1KiB time=00:00:04.76 bitrate=   0.9kbits/s speed=0.0198x elapsed=0:04:01.25    \nframe=  573 fps=2.4 q=28.0 size=       1KiB time=00:00:04.76 bitrate=   0.9kbits/s speed=0.0197x elapsed=0:04:01.80    \nframe=  573 fps=2.4 q=28.0 size=       1KiB time=00:00:04.76 bitrate=   0.9kbits/s speed=0.0197x elapsed=0:04:02.38    \nframe=  577 fps=2.4 q=17.0 size=       1KiB time=00:00:04.80 bitrate=   0.9kbits/s speed=0.0198x elapsed=0:04:02.95    \nframe=  577 fps=2.4 q=17.0 size=       1KiB time=00:00:04.80 bitrate=   0.9kbits/s speed=0.0197x elapsed=0:04:03.52    \nframe=  577 fps=2.4 q=17.0 size=       1KiB time=00:00:04.80 bitrate=   0.9kbits/s speed=0.0197x elapsed=0:04:04.08    \nframe=  579 fps=2.4 q=27.0 size=       1KiB time=00:00:04.81 bitrate=   0.9kbits/s speed=0.0197x elapsed=0:04:04.64    \nframe=  581 fps=2.4 q=26.0 size=       1KiB time=00:00:04.83 bitrate=   0.9kbits/s speed=0.0197x elapsed=0:04:05.20    \nframe=  581 fps=2.4 q=26.0 size=       1KiB time=00:00:04.83 bitrate=   0.9kbits/s speed=0.0197x elapsed=0:04:05.76    \nframe=  583 fps=2.4 q=27.0 size=       1KiB time=00:00:04.83 bitrate=   0.9kbits/s speed=0.0196x elapsed=0:04:06.33    \nframe=  585 fps=2.4 q=24.0 size=       1KiB time=00:00:04.86 bitrate=   0.9kbits/s speed=0.0197x elapsed=0:04:06.91    \nframe=  585 fps=2.4 q=24.0 size=       1KiB time=00:00:04.86 bitrate=   0.9kbits/s speed=0.0197x elapsed=0:04:07.47    \nframe=  585 fps=2.4 q=24.0 size=       1KiB time=00:00:04.86 bitrate=   0.9kbits/s speed=0.0196x elapsed=0:04:08.03    \nframe=  587 fps=2.4 q=30.0 size=       1KiB time=00:00:04.88 bitrate=   0.9kbits/s speed=0.0196x elapsed=0:04:08.60    \nframe=  589 fps=2.4 q=32.0 size=       1KiB time=00:00:04.90 bitrate=   0.9kbits/s speed=0.0197x elapsed=0:04:09.18    \nframe=  589 fps=2.4 q=32.0 size=       1KiB time=00:00:04.90 bitrate=   0.9kbits/s speed=0.0196x elapsed=0:04:09.78    \nframe=  600 fps=2.4 q=40.0 size=       1KiB time=00:00:04.91 bitrate=   0.9kbits/s speed=0.0196x elapsed=0:04:10.35    \n[out#0/matroska @ 00000164767190c0] video:369KiB audio:0KiB subtitle:0KiB other streams:0KiB global headers:0KiB muxing overhead: 0.863985%\nframe=  600 fps=2.4 q=40.0 Lsize=     372KiB time=00:00:04.99 bitrate= 610.1kbits/s speed=0.0199x elapsed=0:04:10.40    \n",
  "seconds": 251.68748807907104,
  "probe_out": {}
}